User Type,Username,Date,Text
,garryh22,2010-04-02T03:39Z,"Complete name:  Yanni.Voices.2009.Live.From.Acapulco.avi
Format : AVI
Format/Info    : Audio Video Interleave
Format profile : OpenDML
File size: 1.97 GiB
Duration: 1h 55mn
Overall bit rate: 2 442 Kbps
Writing application  : MEncoder SVN-r29352(20090610-gcc4.3.3)
Writing library: MPlayer

Video
Format         : MPEG-4 Visual
Codec ID: XVID
Bit rate : 4 542 Kbps
Width : 720 pixels
Height: 480 pixels
Display aspect ratio   : 16:9
Frame rate: 29.970 fps
Standard: NTSC
Resolution: 24 bits
Colorimetry: 4:2:0
Scan type: Progressive
Bits/(Pixel*Frame): 0.438
Stream size    : 1.86 GiB (94%)
Writing library: XviD 1.2.1 (UTC 2008-12-04)

Audio
ID : 1
Format: MPEG Audio
Format version : Version 1
Format profile : Layer 3
Codec ID : 55
Codec ID/Hint: MP3
Duration: 1h 55mn
Bit rate mode  : Constant
Bit rate: 128 Kbps
Channel(s): 2 channels
Sampling rate  : 44.1 KHz
Resolution: 16 bits
Video delay: 33ms
Stream size: 106 MiB (5%)
Alignment: Aligned on interleaves
Interleave, duration : 26 ms (0.78 video frame)
Interleave, preload duration : 522 ms
Writing library: LAME3.98"
,Harutik_11,2010-04-03T07:06Z,I wonder if we can get Yanni - The Concert Event in BluRay
,garryh22,2010-04-03T11:33Z,I don't think they have them in BluRay yet.
,Harutik_11,2010-04-04T03:07Z,"It came out on BluRay a few weeks ago.
Nobody has ripped and uploaded yet.
Awaiting Patiently :)"
,garryh22,2010-04-04T19:41Z,"Looking forward to having it in Blu Ray then. This post does not contain the bonus Latino videos. You can find them here:
http://thepiratebay.org/torrent/5480764"
